<svg version="1.1" id="Layer_1" xmlns="http://www.w3.org/2000/svg" xmlns:xlink="http://www.w3.org/1999/xlink" x="0px" y="0px" viewBox="0 0 500 500" style="width: 166px;" xml:space="preserve" data-imageid="architect-96" imageName="Architect" class="illustrations_image">
<style type="text/css">
	.st0_architect-96{fill:#68E1FD;}
	.st1_architect-96{fill:#093F68;}
	.st2_architect-96{fill:#FFC9B0;}
	.st3_architect-96{fill:#F56132;}
	.st4_architect-96{fill:#FFBC0E;}
	.st5_architect-96{fill:#DFEAEF;}
	.st6_architect-96{fill:#FFFFFF;}
</style>
<g id="character_architect-96">
	<path class="st0_architect-96 targetColor" d="M340.7,335v73.4H160.4V335c0-24.2,12.6-45.2,31-55.6c8.1-4.6,17.2-7.1,26.5-7h65.3c9.3,0,18.4,2.4,26.5,7&#10;&#9;&#9;C328.2,289.9,340.7,310.9,340.7,335z" style="fill: rgb(104, 225, 253);"/>
	<path class="st1_architect-96" d="M340.7,410.3H160.4c-1,0-1.9-0.8-1.9-1.9l0,0V335c0-24.1,12.2-46,31.9-57.2c8.4-4.8,17.8-7.3,27.4-7.3h65.3&#10;&#9;&#9;c9.6,0,19.1,2.5,27.4,7.3c19.7,11.2,31.9,33.1,31.9,57.2v73.4C342.6,409.4,341.8,410.3,340.7,410.3&#10;&#9;&#9;C340.7,410.3,340.7,410.3,340.7,410.3z M162.2,406.6h176.7V335c0-22.8-11.5-43.5-30.1-54c-7.8-4.5-16.6-6.8-25.6-6.8h-65.3&#10;&#9;&#9;c-9,0-17.8,2.3-25.6,6.8c-18.6,10.5-30.1,31.2-30.1,54L162.2,406.6z"/>
	<path class="st2_architect-96" d="M236,251.3h29.1l0,0V281c0,3.6-2.9,6.5-6.5,6.5h-16.2c-3.6,0-6.5-2.9-6.5-6.4c0,0,0,0,0,0V251.3L236,251.3z"/>
	<path class="st1_architect-96" d="M253.2,289.3h-5.3c-7.6,0-13.7-6.1-13.7-13.7v-24.3c0-1,0.8-1.8,1.8-1.8h29.1c1,0,1.8,0.8,1.8,1.8v24.3&#10;&#9;&#9;C266.9,283.2,260.8,289.3,253.2,289.3z M237.9,253.1v22.5c0,5.5,4.5,10,10.1,10h5.3c5.5,0,10-4.5,10-10v-22.5H237.9z"/>
	<ellipse class="st2_architect-96" cx="190.7" cy="196.3" rx="20.6" ry="25.3"/>
	<path class="st1_architect-96" d="M190.7,223.5c-12.3,0-22.4-12.2-22.4-27.2s10-27.2,22.4-27.2s22.4,12.2,22.4,27.2S203,223.5,190.7,223.5z&#10;&#9;&#9; M190.7,172.8c-10.3,0-18.7,10.5-18.7,23.5s8.4,23.5,18.7,23.5s18.7-10.5,18.7-23.5S201,172.8,190.7,172.8z"/>
	<ellipse class="st2_architect-96" cx="310.5" cy="196.3" rx="20.5" ry="25.3"/>
	<path class="st1_architect-96" d="M310.5,223.5c-12.4,0-22.4-12.2-22.4-27.2s10-27.2,22.4-27.2s22.4,12.2,22.4,27.2S322.8,223.5,310.5,223.5z&#10;&#9;&#9; M310.5,172.8c-10.3,0-18.7,10.5-18.7,23.5s8.4,23.5,18.7,23.5s18.7-10.5,18.7-23.5S320.8,172.8,310.5,172.8z"/>
	<path class="st2_architect-96" d="M290.9,117c12.9,0,23.4,10.5,23.4,23.4v0v63.3c0,33.7-27.3,61-61,61h-5.6c-33.7,0-61-27.3-61-61v-63.3&#10;&#9;&#9;c0-12.9,10.5-23.4,23.4-23.4c0,0,0,0,0.1,0H290.9z"/>
	<path class="st1_architect-96" d="M253.4,266.6h-5.6c-34.7-0.1-62.7-28.2-62.8-62.8v-63.3c0-13.9,11.3-25.2,25.3-25.3H291&#10;&#9;&#9;c13.9,0,25.2,11.3,25.3,25.3v63.4C316.2,238.5,288.1,266.6,253.4,266.6z M210.2,118.9c-11.9,0-21.6,9.7-21.6,21.6v63.4&#10;&#9;&#9;c0,32.6,26.5,59.1,59.1,59.1h5.6c32.6,0,59.1-26.5,59.1-59.1v-63.3c0-11.9-9.7-21.6-21.6-21.6H210.2z"/>
	<path class="st1_architect-96" d="M251.2,237.5c-7,0-13.9-1.8-20-5.3c-0.9-0.6-1.1-1.7-0.6-2.6c0.6-0.9,1.7-1.1,2.6-0.6&#10;&#9;&#9;c11.2,6.3,25,6.3,36.2-0.1c0.9-0.5,2-0.2,2.5,0.7c0.5,0.9,0.2,2-0.7,2.5l0,0C265.1,235.7,258.2,237.5,251.2,237.5z"/>
	<path class="st0_architect-96 targetColor" d="M248.6,58.2h5.2c39.2,0,70.9,31.8,70.9,70.9l0,0v6.5l0,0H177.6l0,0v-6.5C177.6,90,209.4,58.2,248.6,58.2&#10;&#9;&#9;L248.6,58.2z" style="fill: rgb(104, 225, 253);"/>
	<path class="st1_architect-96" d="M324.8,137.5H177.6c-1,0-1.8-0.8-1.8-1.8c0,0,0,0,0,0v-3.9c0-41.6,33.8-75.4,75.4-75.4&#10;&#9;&#9;c41.6,0,75.4,33.8,75.4,75.4v3.9C326.6,136.7,325.8,137.5,324.8,137.5C324.8,137.5,324.8,137.5,324.8,137.5z M179.5,133.8h143.4&#10;&#9;&#9;v-2.1c0-39.6-32.1-71.7-71.7-71.7c-39.6,0-71.7,32.1-71.7,71.7V133.8z"/>
	<path class="st0_architect-96 targetColor" d="M175.8,135.7h150.8c7.8,0,14.1,6.3,14.1,14.1v0c0,7.8-6.3,14.1-14.1,14.1H175.8c-7.8,0-14.1-6.3-14.1-14.1v0&#10;&#9;&#9;C161.7,142,168,135.7,175.8,135.7z" style="fill: rgb(104, 225, 253);"/>
	<path class="st1_architect-96" d="M326.6,165.8H175.8c-8.8-0.6-15.5-8.3-14.8-17.1c0.6-7.9,6.9-14.3,14.8-14.8h150.8c8.8,0.6,15.5,8.3,14.8,17.1&#10;&#9;&#9;C340.9,158.9,334.6,165.2,326.6,165.8z M175.8,137.5c-6.8,0-12.3,5.5-12.3,12.3s5.5,12.3,12.3,12.3c0,0,0,0,0,0h150.8&#10;&#9;&#9;c6.8,0,12.3-5.5,12.3-12.3c0-6.8-5.5-12.3-12.3-12.3H175.8z"/>
	<path class="st0_architect-96 targetColor" d="M241.7,52.5h19.1c6.4,0,11.5,5.2,11.5,11.5c0,0.3,0,0.6,0,0.8l-5.2,70.9h-31.6l-5.2-70.9&#10;&#9;&#9;c-0.5-6.3,4.3-11.9,10.7-12.3C241.1,52.5,241.4,52.5,241.7,52.5z" style="fill: rgb(104, 225, 253);"/>
	<path class="st1_architect-96" d="M267,137.5h-31.6c-1,0-1.8-0.7-1.8-1.7l-5.2-70.9c-0.5-7.3,5-13.7,12.3-14.3c0.3,0,0.7,0,1,0h19.1&#10;&#9;&#9;c7.4,0,13.3,6,13.3,13.3c0,0.3,0,0.7,0,1l-5.2,70.9C268.8,136.8,268,137.5,267,137.5z M237.1,133.8h28.2l5.1-69.2&#10;&#9;&#9;c0.4-5.3-3.6-10-8.9-10.4c-0.2,0-0.5,0-0.7,0h-19.1c-5.3,0-9.7,4.3-9.7,9.7c0,0.2,0,0.5,0,0.7L237.1,133.8z"/>
	<path class="st1_architect-96" d="M229.9,211.6h-24.8c-6.9,0-12.5-5.6-12.5-12.5V189c0-6.9,5.6-12.5,12.5-12.5h24.8c6.9,0,12.5,5.6,12.5,12.5&#10;&#9;&#9;v10.2C242.4,206.1,236.8,211.6,229.9,211.6z M205.1,180.2c-4.9,0-8.8,3.9-8.8,8.8v10.2c0,4.9,3.9,8.8,8.8,8.8h24.8&#10;&#9;&#9;c4.9,0,8.8-3.9,8.8-8.8V189c0-4.9-3.9-8.8-8.8-8.8L205.1,180.2z"/>
	<path class="st1_architect-96" d="M295.7,211.6h-24.8c-6.9,0-12.5-5.6-12.5-12.5V189c0-6.9,5.6-12.5,12.5-12.5h24.8c6.9,0,12.5,5.6,12.5,12.5&#10;&#9;&#9;v10.2C308.1,206.1,302.6,211.6,295.7,211.6z M270.9,180.2c-4.8,0-8.8,3.9-8.8,8.8v10.2c0,4.9,3.9,8.8,8.8,8.8h24.8&#10;&#9;&#9;c4.9,0,8.8-3.9,8.8-8.8V189c0-4.9-3.9-8.8-8.8-8.8L270.9,180.2z"/>
	<path class="st1_architect-96" d="M260.3,193.4c-0.4,0-0.8-0.1-1.1-0.4c-7.1-5.6-15.9-0.1-16.3,0.1c-0.9,0.5-2,0.2-2.5-0.6&#10;&#9;&#9;c-0.5-0.8-0.3-1.9,0.5-2.5c0.5-0.3,11.4-7.1,20.5,0.1c0.8,0.6,0.9,1.8,0.3,2.6C261.4,193.2,260.8,193.4,260.3,193.4L260.3,193.4z"/>
	<path class="st1_architect-96" d="M195.3,187.7c-0.5,0-1-0.2-1.3-0.6l-8.6-9.2c-0.7-0.7-0.7-1.9,0.1-2.6c0.7-0.7,1.9-0.7,2.6,0.1l8.6,9.2&#10;&#9;&#9;c0.7,0.7,0.7,1.9-0.1,2.6C196.3,187.5,195.8,187.7,195.3,187.7z"/>
	<path class="st1_architect-96" d="M305.8,187.7c-0.5,0-0.9-0.2-1.3-0.5c-0.7-0.7-0.8-1.9-0.1-2.6l8.6-9.2c0.7-0.8,1.8-0.9,2.6-0.2&#10;&#9;&#9;s0.9,1.8,0.2,2.6c0,0.1-0.1,0.1-0.2,0.2l-8.6,9.2C306.8,187.5,306.3,187.7,305.8,187.7z"/>
	<path class="st1_architect-96" d="M194.6,377.8c-1,0-1.8-0.8-1.8-1.8v-75.7c0-1,0.8-1.8,1.8-1.8c1,0,1.8,0.8,1.8,1.8c0,0,0,0,0,0v75.7&#10;&#9;&#9;C196.4,376.9,195.6,377.8,194.6,377.8C194.6,377.8,194.6,377.8,194.6,377.8z"/>
	<path class="st1_architect-96" d="M306.6,377.8c-1,0-1.8-0.8-1.8-1.8v-75.7c0-1,0.8-1.8,1.8-1.8c1,0,1.8,0.8,1.8,1.8c0,0,0,0,0,0v75.7&#10;&#9;&#9;C308.4,376.9,307.6,377.8,306.6,377.8L306.6,377.8z"/>
	<path class="st1_architect-96" d="M252.6,217.1c-2.2,0-4.3-0.2-6.5-0.6c-1-0.2-1.7-1.1-1.5-2.1c0.2-1,1.1-1.7,2.1-1.5c0,0,0.1,0,0.1,0&#10;&#9;&#9;c0.1,0,5.9,1.1,10,0.1c0.8-1.8-1.8-10.1-5.6-18.1c-0.4-0.9,0-2,0.9-2.4c0.9-0.4,2,0,2.4,0.9l0,0c1.8,3.9,7.6,16.8,5.5,21.3&#10;&#9;&#9;c-0.4,0.9-1.2,1.6-2.1,1.9C256.2,216.9,254.4,217.1,252.6,217.1z"/>
	<circle class="st1_architect-96" cx="222.4" cy="190.7" r="6.2"/>
	<path class="st1_architect-96" d="M232.6,174.7h-29.7c-2-0.1-3.6-1.8-3.5-3.9c0.1-1.9,1.6-3.4,3.5-3.5h29.7c2,0.1,3.6,1.8,3.5,3.9&#10;&#9;&#9;C236,173.1,234.5,174.6,232.6,174.7z"/>
	<circle class="st1_architect-96" cx="280.6" cy="190.7" r="6.2"/>
	<path class="st1_architect-96" d="M300.1,174.7h-29.7c-2,0.1-3.8-1.5-3.9-3.5s1.5-3.8,3.5-3.9c0.1,0,0.3,0,0.4,0h29.7c2-0.1,3.8,1.5,3.9,3.5&#10;&#9;&#9;s-1.5,3.8-3.5,3.9C300.4,174.7,300.2,174.7,300.1,174.7z"/>
	<path class="st3_architect-96" d="M241.7,287.5h15.7c1.6,0,2.9,1.3,2.9,2.9v7c0,1.6-1.3,2.9-2.9,2.9h-15.7c-1.6,0-2.9-1.3-2.9-2.9v-7&#10;&#9;&#9;C238.8,288.8,240.1,287.5,241.7,287.5z"/>
	<path class="st1_architect-96" d="M255,302.1h-10.9c-3.9,0-7.1-3.2-7.1-7.1v-2.2c0-3.9,3.2-7.1,7.1-7.1H255c3.9,0,7.1,3.2,7.1,7.1v2.2&#10;&#9;&#9;C262.1,298.9,258.9,302.1,255,302.1z M244.1,289.3c-1.9,0-3.4,1.5-3.4,3.5v2.2c0,1.9,1.5,3.5,3.4,3.5c0,0,0,0,0,0H255&#10;&#9;&#9;c1.9,0,3.5-1.5,3.5-3.4v0v-2.2c0-1.9-1.5-3.4-3.4-3.5L244.1,289.3z"/>
	<polygon class="st3_architect-96" points="256.8,300.2 242.3,300.2 229.2,366.7 269.9,366.7 &#9;"/>
	<path class="st1_architect-96" d="M269.9,368.6h-40.7c-0.5,0-1.1-0.2-1.4-0.7c-0.3-0.4-0.5-1-0.4-1.5l13.1-66.5c0.2-0.9,0.9-1.5,1.8-1.5h14.5&#10;&#9;&#9;c0.9,0,1.6,0.6,1.8,1.5l13.1,66.5c0.2,1-0.4,2-1.4,2.2C270.2,368.6,270,368.6,269.9,368.6z M231.4,364.9h36.2l-12.4-62.8h-11.5&#10;&#9;&#9;L231.4,364.9z"/>
	<path class="st1_architect-96" d="M296.6,349h-27c-1,0-1.8-0.8-1.8-1.8c0,0,0,0,0,0v-33.6c0-1,0.8-1.8,1.8-1.8c0,0,0,0,0,0h27&#10;&#9;&#9;c1,0,1.8,0.8,1.8,1.8v33.6C298.4,348.2,297.6,349,296.6,349z M271.4,345.3h23.3v-29.9h-23.3V345.3z"/>
	<rect x="274.6" y="301.5" class="st4_architect-96" width="7.2" height="12.1"/>
	<path class="st1_architect-96" d="M281.8,315.5h-7.2c-1,0-1.8-0.8-1.8-1.8v-12.1c0-1,0.8-1.8,1.8-1.8h7.2c1,0,1.8,0.8,1.8,1.8v12.1&#10;&#9;&#9;C283.7,314.6,282.8,315.5,281.8,315.5L281.8,315.5z M276.5,311.8h3.5v-8.4h-3.5L276.5,311.8z"/>
	<path class="st1_architect-96" d="M228.6,312.8h-22.3c-1,0-1.8-0.8-1.8-1.8c0-1,0.8-1.8,1.8-1.8c0,0,0,0,0,0h22.3c1,0,1.8,0.8,1.8,1.8&#10;&#9;&#9;C230.4,312,229.6,312.8,228.6,312.8z"/>
</g>
<g id="map_architect-96">
	<rect x="283.1" y="330.4" class="st0_architect-96 targetColor" width="34" height="41.5" style="fill: rgb(104, 225, 253);"/>
	<path class="st1_architect-96" d="M317.1,373.8h-34c-1,0-1.8-0.8-1.8-1.8v-41.5c0-1,0.8-1.8,1.8-1.8c0,0,0,0,0,0h34c1,0,1.9,0.8,1.9,1.9l0,0V372&#10;&#9;&#9;C318.9,373,318.1,373.8,317.1,373.8z M284.9,370.1h30.4v-37.9h-30.4L284.9,370.1z"/>
	<path class="st5_architect-96" d="M177.6,342.2h-39.4c-1-0.1-1.8-1-1.7-2c0.1-0.9,0.8-1.6,1.7-1.7h39.4c1,0.1,1.8,1,1.7,2&#10;&#9;&#9;C179.3,341.5,178.6,342.2,177.6,342.2z"/>
	<path class="st1_architect-96" d="M117.4,313.1c0,0-2.1-6.1,2.9-9.2s13.3-1,13.3-1l4.7,37.5C138.2,340.4,119.1,331.4,117.4,313.1z"/>
	<path class="st1_architect-96" d="M138.2,342.2c-0.3,0-0.5-0.1-0.8-0.2c-0.8-0.4-20-9.6-21.9-28.6c-0.8-2.7-1-8.1,3.8-11.1&#10;&#9;&#9;c5.6-3.5,14.3-1.4,14.7-1.3c0.7,0.2,1.3,0.8,1.4,1.6l4.7,37.5c0.1,0.7-0.2,1.3-0.7,1.7C139,342.1,138.6,342.3,138.2,342.2z&#10;&#9;&#9; M127.6,304c-2.2-0.1-4.4,0.4-6.3,1.4c-3.7,2.3-2.2,6.9-2.1,7c0,0.1,0.1,0.3,0.1,0.4c1.2,12.6,11.5,20.7,16.7,24l-4-32.5&#10;&#9;&#9;C130.5,304.2,129,304,127.6,304z"/>
	<path class="st1_architect-96" d="M383.4,313.1c0,0,2.1-6.1-2.9-9.2s-13.3-1-13.3-1l-4.7,37.5C362.5,340.4,381.7,331.4,383.4,313.1z"/>
	<path class="st1_architect-96" d="M362.5,342.2c-1,0-1.8-0.8-1.8-1.8c0-0.1,0-0.2,0-0.2l4.6-37.5c0.1-0.8,0.6-1.4,1.4-1.6&#10;&#9;&#9;c0.4-0.1,9.1-2.2,14.7,1.3c4.8,3,4.6,8.5,3.8,11.1c-1.9,19-21.1,28.2-21.9,28.6C363.1,342.2,362.8,342.3,362.5,342.2z M368.8,304.4&#10;&#9;&#9;l-4,32.6c5.3-3.3,15.6-11.4,16.7-24c0-0.1,0-0.3,0.1-0.4c0.1-0.2,1.5-4.8-2.1-7C376.3,303.5,371.2,304,368.8,304.4L368.8,304.4z"/>
	<path class="st2_architect-96" d="M112.6,356.5c-0.4-2.1-0.6-4.6,1-6.2c1.4-1.3,3.4-1.6,5.1-0.8c1.7,0.8,3.1,2,4.1,3.5&#10;&#9;&#9;c3.5,4.7,10.7,22.6-0.4,22.9C115.2,376.1,113.4,361.4,112.6,356.5z"/>
	<path class="st1_architect-96" d="M122.2,377.8c-8,0-10.2-13.2-11.2-19.5l-0.2-1.5l0,0c-0.4-2.5-0.7-5.6,1.4-7.8c1.9-1.8,4.7-2.3,7.1-1.2&#10;&#9;&#9;c2,0.9,3.6,2.4,4.9,4.1c2.6,3.5,8.1,15.4,5,21.8c-0.9,1.8-2.7,3.9-6.8,4L122.2,377.8z M114.4,356.1c0.1,0.4,0.2,0.9,0.2,1.5&#10;&#9;&#9;c0.7,4.5,2.7,16.5,7.6,16.5h0.1c2.4-0.1,3.2-1.1,3.6-1.9c2-4.2-1.8-14.3-4.6-18c-0.8-1.3-2-2.3-3.3-2.9c-1-0.5-2.2-0.3-3.1,0.4&#10;&#9;&#9;C113.8,352.6,114.1,354.6,114.4,356.1z"/>
	<path class="st2_architect-96" d="M387.4,356.5c0.4-2.1,0.6-4.6-1-6.2c-1.4-1.3-3.4-1.6-5.1-0.8c-1.7,0.8-3.1,2-4.1,3.5&#10;&#9;&#9;c-3.5,4.7-10.7,22.6,0.4,22.9C384.8,376.1,386.6,361.4,387.4,356.5z"/>
	<path class="st1_architect-96" d="M377.8,377.8h-0.2c-4.1-0.1-6-2.2-6.8-4c-3.1-6.4,2.4-18.4,5-21.8c1.2-1.8,2.9-3.2,4.9-4.1&#10;&#9;&#9;c2.4-1.1,5.2-0.6,7.1,1.2c2.1,2.2,1.9,5.3,1.4,7.8l0,0l-0.2,1.4C388,364.6,385.8,377.8,377.8,377.8z M383.5,350.9&#10;&#9;&#9;c-0.5,0-0.9,0.1-1.4,0.3c-1.4,0.7-2.5,1.7-3.3,2.9c-2.8,3.7-6.6,13.8-4.6,18c0.4,0.8,1.2,1.9,3.6,1.9h0.1c4.9,0,6.8-12,7.6-16.5&#10;&#9;&#9;c0.1-0.6,0.2-1.1,0.2-1.5l0,0c0.3-1.5,0.5-3.6-0.5-4.6C384.7,351.1,384.1,350.9,383.5,350.9z M387.5,356.5L387.5,356.5z"/>
	<path class="st6_architect-96" d="M117.4,313.1v-0.6C117.4,312.7,117.4,312.9,117.4,313.1z"/>
	<path class="st1_architect-96" d="M117.4,315c-0.9,0-1.7-0.7-1.8-1.6c0-0.3-0.1-0.6-0.1-0.8c0-1,0.8-1.8,1.8-1.9c1-0.1,1.8,0.7,1.9,1.6l0.1,0.6&#10;&#9;&#9;c0.1,1-0.6,1.9-1.6,2L117.4,315z"/>
	<path class="st6_architect-96" d="M380.7,319c-2.8,3-8.9,2.9-10.2,2.8H130.9c0,0-7.4,0.6-10.5-2.8c-1.6-1.6-2.7-3.7-3.1-5.9l12.1,124.4&#10;&#9;&#9;c0,0,0.7,12.9,12.5,12.9h217.3l0,0c11.6-0.2,12.2-12.8,12.2-12.8l12.1-124.4C383.3,315.3,382.3,317.4,380.7,319z"/>
	<path class="st1_architect-96" d="M359.4,452.2H142c-10.7,0-14.1-9.6-14.4-14.6l-12.1-124.3c-0.1-1,0.6-1.9,1.6-2.1c1-0.1,1.9,0.6,2.1,1.6&#10;&#9;&#9;c0.3,1.9,1.2,3.6,2.6,4.9c2,2.2,7.3,2.3,9,2.2h239.7c0.1,0,0.2,0,0.3,0c2.9,0.1,6.8-0.4,8.5-2.2l0,0c1.3-1.3,2.2-3.1,2.6-4.9&#10;&#9;&#9;c0.1-1,1-1.7,2.1-1.6c1,0.1,1.7,1,1.6,2.1l0,0l-12.1,124.4c-0.3,4.8-3.5,14.1-13.8,14.5C359.6,452.2,359.5,452.2,359.4,452.2z&#10;&#9;&#9; M120,321.1l11.3,116.2c0,0.5,0.8,11.2,10.7,11.2h217.1h0.2c9.7-0.2,10.4-10.7,10.4-11.1l11.3-116.3c-3.4,2.7-9,2.6-10.7,2.5H130.9&#10;&#9;&#9;C130.3,323.7,123.8,324.1,120,321.1z M380.7,319L380.7,319z"/>
	<path class="st6_architect-96" d="M383.7,313.1c0-0.2,0.1-0.4,0.1-0.6L383.7,313.1z"/>
	<path class="st1_architect-96" d="M383.7,315h-0.2c-1-0.1-1.7-1-1.6-2l0.1-0.6c0.1-1,0.9-1.7,1.9-1.6c1,0.1,1.8,0.9,1.8,1.9c0,0.3,0,0.5-0.1,0.8&#10;&#9;&#9;C385.4,314.3,384.6,315,383.7,315z"/>
	<path class="st2_architect-96" d="M384.9,377.9l-30.1-7.1c-1.5-0.3-2.4-1.8-2.1-3.3l1.1-4.5c0.3-1.5,1.8-2.4,3.3-2.1l30.1,7.1&#10;&#9;&#9;c1.5,0.3,2.4,1.8,2.1,3.3l-1.1,4.5C387.9,377.4,386.4,378.3,384.9,377.9z"/>
	<path class="st1_architect-96" d="M383.9,379.4c-0.5,0-1.1-0.1-1.6-0.2l-25.6-6l0,0c-3.7-1-5.9-4.8-4.9-8.5c0.9-3.5,4.5-5.7,8.1-5l25.6,6&#10;&#9;&#9;c3.7,0.9,6,4.6,5.1,8.3C389.8,377.2,387.1,379.3,383.9,379.4z M357.5,369.6l25.6,6c1.7,0.4,3.5-0.7,3.8-2.5&#10;&#9;&#9;c0.4-1.7-0.7-3.4-2.4-3.8l-25.6-6c-1.7-0.4-3.5,0.6-3.9,2.4S355.7,369.1,357.5,369.6C357.5,369.6,357.5,369.6,357.5,369.6z"/>
	<path class="st2_architect-96" d="M382.6,387.8l-30.1-7.1c-1.5-0.3-2.4-1.8-2.1-3.3l1.1-4.5c0.3-1.5,1.8-2.4,3.3-2.1l30.1,7.1&#10;&#9;&#9;c1.5,0.3,2.4,1.8,2.1,3.3l-1.1,4.5C385.6,387.2,384.1,388.2,382.6,387.8z"/>
	<path class="st1_architect-96" d="M381.5,389.2c-0.5,0-1.1-0.1-1.6-0.2l-25.6-6l0,0c-1.8-0.4-3.3-1.5-4.3-3.1c-1-1.6-1.3-3.4-0.9-5.2&#10;&#9;&#9;c0.9-3.7,4.6-6,8.3-5.2l25.6,6c3.7,0.9,6,4.6,5.2,8.3C387.6,387,384.8,389.3,381.5,389.2L381.5,389.2z M355.9,373.1&#10;&#9;&#9;c-1.8,0-3.2,1.4-3.3,3.2c0,1.5,1,2.8,2.5,3.2l0,0l25.6,6c1.7,0.5,3.5-0.5,4-2.2c0.5-1.7-0.5-3.5-2.2-4c-0.1,0-0.2-0.1-0.3-0.1&#10;&#9;&#9;l-25.6-6C356.4,373.1,356.2,373.1,355.9,373.1z"/>
	<path class="st2_architect-96" d="M380.3,397.7l-30.1-7.1c-1.5-0.3-2.4-1.8-2.1-3.3l1.1-4.5c0.3-1.5,1.8-2.4,3.3-2.1l30.1,7.1&#10;&#9;&#9;c1.5,0.3,2.4,1.8,2.1,3.3l-1.1,4.5C383.3,397.1,381.8,398.1,380.3,397.7z"/>
	<path class="st1_architect-96" d="M379.2,399.1c-0.5,0-1.1-0.1-1.6-0.2l-25.6-6l0,0c-3.7-1-5.9-4.8-4.9-8.5c0.9-3.5,4.5-5.7,8.1-5l25.6,6&#10;&#9;&#9;c3.7,0.9,6,4.6,5.1,8.3C385.2,396.9,382.4,399.1,379.2,399.1L379.2,399.1z M352.9,389.4l25.6,6c1.7,0.4,3.5-0.7,3.9-2.4&#10;&#9;&#9;c0.4-1.7-0.7-3.5-2.4-3.9l0,0l-25.6-6c-1.7-0.4-3.5,0.7-3.9,2.4C350.1,387.2,351.1,389,352.9,389.4z"/>
	<path class="st2_architect-96" d="M378,407.6l-30.1-7.1c-1.5-0.3-2.4-1.8-2.1-3.3l1.1-4.5c0.3-1.5,1.8-2.4,3.3-2.1l30.1,7.1&#10;&#9;&#9;c1.5,0.3,2.4,1.8,2.1,3.3l-1.1,4.5C380.9,407,379.5,407.9,378,407.6z"/>
	<path class="st1_architect-96" d="M376.9,409c-0.5,0-1.1-0.1-1.6-0.2l-25.6-6l0,0c-3.7-0.9-6-4.6-5.1-8.3s4.6-6,8.3-5.1l0,0l25.6,6&#10;&#9;&#9;c3.7,0.9,6,4.6,5.1,8.3C382.9,406.8,380.1,409,376.9,409z M350.6,399.2l25.6,6c1.8,0.3,3.4-0.8,3.8-2.6c0.3-1.6-0.7-3.2-2.3-3.7&#10;&#9;&#9;l-25.6-6c-1.7-0.5-3.5,0.5-4,2.2c-0.5,1.7,0.5,3.5,2.2,4C350.3,399.2,350.5,399.2,350.6,399.2z"/>
	<path class="st2_architect-96" d="M112.7,368l30.1-7.1c1.5-0.3,3,0.6,3.3,2.1l1.1,4.5c0.3,1.5-0.6,3-2.1,3.3l-30.1,7.1c-1.5,0.3-3-0.6-3.3-2.1&#10;&#9;&#9;l-1.1-4.5C110.3,369.9,111.2,368.4,112.7,368z"/>
	<path class="st1_architect-96" d="M116.1,379.4c-3.8,0-6.9-3.1-6.9-6.9c0-1.3,0.4-2.6,1-3.7c1-1.6,2.5-2.7,4.3-3.1l25.6-6&#10;&#9;&#9;c3.7-0.8,7.4,1.7,8.2,5.4c0.7,3.6-1.5,7.1-5,8.1l0,0l-25.6,6C117.2,379.3,116.7,379.4,116.1,379.4z M141.8,363.2&#10;&#9;&#9;c-0.2,0-0.5,0-0.7,0.1l-25.6,6c-1.7,0.4-2.8,2.1-2.4,3.9c0.4,1.7,2.1,2.8,3.9,2.4l25.6-6c1.7-0.4,2.8-2.1,2.4-3.9&#10;&#9;&#9;c-0.2-0.8-0.7-1.6-1.4-2C143,363.4,142.4,363.2,141.8,363.2z M142.9,371.4L142.9,371.4z"/>
	<path class="st2_architect-96" d="M115,377.9l30.1-7.1c1.5-0.3,3,0.6,3.3,2.1l1.1,4.5c0.3,1.5-0.6,3-2.1,3.3l-30.1,7.1c-1.5,0.3-3-0.6-3.3-2.1&#10;&#9;&#9;l-1.1-4.5C112.6,379.8,113.5,378.3,115,377.9z"/>
	<path class="st1_architect-96" d="M118.4,389.2c-3.8,0-6.9-3.1-6.9-6.9c0-3.2,2.2-6,5.4-6.7l25.6-6c1.8-0.4,3.7-0.1,5.2,0.9&#10;&#9;&#9;c3.2,2,4.2,6.3,2.2,9.5c-1,1.6-2.5,2.7-4.3,3.1l-25.6,6C119.5,389.2,119,389.3,118.4,389.2z M144.1,373.1c-0.2,0-0.5,0-0.7,0.1&#10;&#9;&#9;l-25.6,6c-0.8,0.2-1.6,0.7-2,1.4c-0.9,1.5-0.5,3.5,1,4.5c0.7,0.5,1.6,0.6,2.5,0.4l25.6-6l0,0c1.7-0.4,2.8-2.1,2.4-3.9&#10;&#9;&#9;C146.9,374.1,145.6,373.1,144.1,373.1L144.1,373.1z"/>
	<path class="st2_architect-96" d="M117.3,387.8l30.1-7.1c1.5-0.3,3,0.6,3.3,2.1l1.1,4.5c0.3,1.5-0.6,3-2.1,3.3l-30.1,7.1c-1.5,0.3-3-0.6-3.3-2.1&#10;&#9;&#9;l-1.1-4.5C114.9,389.6,115.9,388.2,117.3,387.8z"/>
	<path class="st1_architect-96" d="M120.8,399.1c-3.8,0-6.9-3.1-6.9-6.9c0-1.3,0.4-2.6,1-3.7c1-1.6,2.5-2.7,4.3-3.1l25.6-6&#10;&#9;&#9;c3.7-0.9,7.4,1.4,8.3,5.2c0.9,3.7-1.4,7.4-5.2,8.3l0,0l-25.6,6C121.8,399.1,121.3,399.1,120.8,399.1z M146.4,383&#10;&#9;&#9;c-0.2,0-0.5,0-0.7,0.1l-25.6,6c-0.8,0.2-1.6,0.7-2,1.5c-0.5,0.7-0.6,1.6-0.4,2.4c0.4,1.7,2.1,2.8,3.9,2.4l25.6-6&#10;&#9;&#9;c1.7-0.4,2.8-2.2,2.4-3.9C149.2,384,147.9,383,146.4,383z M147.5,391.2L147.5,391.2z"/>
	<path class="st2_architect-96" d="M119.6,397.7l30.1-7.1c1.5-0.3,3,0.6,3.3,2.1l1.1,4.5c0.3,1.5-0.6,3-2.1,3.3l-30.1,7.1c-1.5,0.3-3-0.6-3.3-2.1&#10;&#9;&#9;l-1.1-4.5C117.2,399.5,118.2,398.1,119.6,397.7z"/>
	<path class="st1_architect-96" d="M123.1,409c-3.8,0-6.9-3.1-6.9-7c0-3.2,2.2-6,5.3-6.7l25.6-6c3.7-0.9,7.4,1.4,8.3,5.1s-1.4,7.4-5.1,8.3l0,0&#10;&#9;&#9;l-25.6,6C124.1,408.9,123.6,409,123.1,409z M148.7,392.9c-0.3,0-0.5,0-0.8,0.1l-25.6,6c-0.8,0.2-1.6,0.7-2,1.5&#10;&#9;&#9;c-0.9,1.5-0.5,3.5,1,4.4c0.7,0.5,1.6,0.6,2.5,0.4l25.6-6c1.7-0.4,2.8-2.1,2.5-3.9c-0.2-0.9-0.7-1.6-1.5-2&#10;&#9;&#9;C149.9,393,149.3,392.8,148.7,392.9L148.7,392.9z M149.9,401L149.9,401z"/>
</g>
</svg>